<svg id="Grupo_1101575" data-name="Grupo 1101575" xmlns="http://www.w3.org/2000/svg" xmlns:xlink="http://www.w3.org/1999/xlink" width="185.102" height="185.032" viewBox="0 0 185.102 185.032">
  <defs>
    <clipPath id="clip-path">
      <rect id="Rectángulo_401705" data-name="Rectángulo 401705" width="185.102" height="185.032" fill="#824ffb"/>
    </clipPath>
  </defs>
  <g id="Grupo_1101574" data-name="Grupo 1101574" clip-path="url(#clip-path)">
    <path id="Trazado_890949" data-name="Trazado 890949" d="M0,127.115a34.9,34.9,0,0,1,2.841-5.1c2.494-3.154,6.028-4.216,9.972-4.124.2-.433.379-.807.541-1.19a11.042,11.042,0,0,1,10.672-7.2c4.213-.1,8.446-.245,12.642.037,4.888.329,9.379-1.05,13.916-2.431.8-.245,1.608-.493,2.425-.687a2.7,2.7,0,0,1,3.342,1.668,2.609,2.609,0,0,1-1.684,3.484c-2.442.823-4.925,1.537-7.418,2.193-1.266.333-1.836.847-1.808,2.3.1,5.3.038,10.6.045,15.9,0,.525.06,1.05.1,1.66H96.321V99.5c-1.717.481-3.322.916-4.918,1.382-8.121,2.366-16.235,4.755-24.362,7.1-2.389.689-4.47-1.039-3.668-3.168a4.337,4.337,0,0,1,2.555-2.163c7.457-2.291,14.962-4.424,22.451-6.612,2.3-.673,4.622-1.31,6.89-2.09a2.341,2.341,0,0,0,1.286-1.351c1.551-5.223,5.714-8.124,10.813-7.435,4.894.661,8.235,4.7,8.247,10.018.015,7.106.032,14.212-.023,21.318-.009,1.223.295,1.717,1.563,2.072a15.218,15.218,0,0,1,11.086,14.6,55.937,55.937,0,0,1-.312,9c-.973,6.29-4.823,10.348-10.812,12.276a1.79,1.79,0,0,0-1.522,2.111c.046,7.046.03,14.092.02,21.138-.008,5.466-3.306,9.509-8.274,10.176-5.087.684-9.237-2.22-10.789-7.469a2.1,2.1,0,0,0-1.136-1.278c-13.4-3.987-26.809-7.918-40.489-11.937,0,2.475,0,4.784,0,7.093,0,3.814-1.231,5.34-5.017,6.131a67.914,67.914,0,0,0,3.4,18.863c1.143,3.345,2.52,6.619,3.953,9.853,2.423,5.467-.642,10.612-6.637,10.742-5.779.125-11.564.107-17.343,0-4.533-.083-7.364-3.021-7.475-7.562-.069-2.769-.049-5.541,0-8.31.036-2.114,1.094-3.294,2.8-3.28,1.682.014,2.747,1.249,2.772,3.316.031,2.649.067,5.3-.012,7.949-.052,1.736.693,2.342,2.371,2.327,5.539-.052,11.08,0,16.621-.027,2.232-.01,2.794-.915,1.809-2.978a78.154,78.154,0,0,1-7.133-23.7c-.31-2.374-.491-4.765-.742-7.256H31.386c0,3.05,0,6.042,0,9.034a8.274,8.274,0,0,1-.085,1.8,2.661,2.661,0,0,1-2.787,2.336,2.605,2.605,0,0,1-2.653-2.669c-.11-2.162-.054-4.333-.064-6.5-.005-1.261,0-2.523,0-3.879-.427-.137-.809-.251-1.185-.381a4.968,4.968,0,0,1-3.62-5.025c-.03-3.433-.042-6.866.011-10.3a1.812,1.812,0,0,0-1.354-2.116,10.337,10.337,0,0,1-6.262-6.338,1.59,1.59,0,0,0-1.671-1.223c-5.923-.265-9.749-3.267-11.451-8.959-.027-.089-.172-.143-.262-.213V127.115m96.324,46.419V139.468H45.482c0,5.969.047,11.8-.036,17.629a1.8,1.8,0,0,0,1.6,2.087q20.465,5.943,40.908,11.962c2.745.8,5.5,1.569,8.375,2.387M39.837,115.09c-5.343,0-10.5-.019-15.666.006-3.755.019-6.087,2.321-6.1,6.061q-.035,15.348,0,30.7c.008,3.742,2.336,6.047,6.089,6.069,4.755.029,9.51.011,14.265,0a12.88,12.88,0,0,0,1.407-.156ZM101.9,136.527q0,20.313,0,40.625a14.679,14.679,0,0,0,.026,1.624,4.037,4.037,0,0,0,3.815,3.663,3.869,3.869,0,0,0,4.214-3.349,13.789,13.789,0,0,0,.153-2.334q.011-40.264,0-80.528a13.077,13.077,0,0,0-.193-2.51,3.833,3.833,0,0,0-3.846-3.142c-2.527-.03-4.16,1.744-4.162,4.6q-.015,20.673,0,41.347M49.492,174.707c0-2.8.06-5.393-.052-7.976a1.993,1.993,0,0,0-1.11-1.414A25.144,25.144,0,0,0,37.947,163.5c-2.7.194-5.418.038-8.128.038h-3.2v11.167Zm-36.9-51.145c-4.058-.278-7,2.06-7.12,5.828-.148,4.752-.157,9.516,0,14.267a5.8,5.8,0,0,0,7.117,5.632Zm103.074,25.51c3.735-1.189,6.541-4.1,6.818-7.578a61.466,61.466,0,0,0-.007-10.053,8.583,8.583,0,0,0-6.811-7.338Z" transform="translate(0 -43.994)" fill="#824ffb"/>
    <path id="Trazado_890950" data-name="Trazado 890950" d="M144.871,307.766c-3.416-1.487-4.609-4.12-4.509-7.781.172-6.317.045-12.643.048-18.965,0-5.517,1.888-7.458,7.405-7.638.287-.009.574-.05,1.047-.093,0-1.516.007-2.945,0-4.374a4.187,4.187,0,0,1,2.421-4.1,4.11,4.11,0,0,1,4.709.637c2.771,2.316,5.491,4.695,8.317,6.942a4.771,4.771,0,0,0,2.556.949c2.341.13,4.694.021,7.042.056,1.819.026,3.013,1.085,3.059,2.622a2.839,2.839,0,0,1-3.09,2.814c-2.95.034-5.91.141-8.846-.059a6.752,6.752,0,0,1-3.37-1.426c-2.416-1.835-4.684-3.865-7.349-6.1,0,1.388.043,2.33-.008,3.266a4.385,4.385,0,0,1-4.4,4.325c-3.969.191-3.969.191-3.969,4.159,0,5.84.041,11.681-.029,17.521-.017,1.422.4,1.862,1.842,1.858q26.462-.067,52.925-.005c1.3,0,1.833-.337,1.8-1.715-.079-3.112-.025-6.228-.025-9.409A23.326,23.326,0,0,1,199.6,291a7.017,7.017,0,0,1-5.523-6.9c-.043-1.675-.008-3.352-.008-5.254-2.159,0-4.184,0-6.209,0-2.409-.005-3.7-.934-3.738-2.686-.045-1.858,1.188-2.758,3.788-2.77q2.8-.014,5.6-.039a2.574,2.574,0,0,0,.558-.218v-5.077c0-3.974-.008-7.948,0-11.922.012-4.935,2.76-7.7,7.7-7.753.832-.009,1.665,0,2.744,0,0-2.057.031-3.958-.008-5.859a4.706,4.706,0,0,1,2.662-4.727c1.97-.971,3.739-.421,5.336.928,3.356,2.835,6.667,5.728,10.1,8.473a5.341,5.341,0,0,0,3.036,1.134c8.007.091,16.018.19,24.022,0,5.4-.127,8.145,3.723,8.036,8-.234,9.146-.067,18.3-.074,27.454,0,4.494-2.819,7.344-7.3,7.349q-19.96.02-39.919,0h-2.356c0,3.013-.117,5.887.029,8.746.189,3.72-1.126,6.424-4.658,7.883Zm65.1-63.938c0,2.018.042,3.56-.009,5.1a4.808,4.808,0,0,1-5.044,4.959c-.962.027-1.926,0-2.889.007-2.136.013-2.379.231-2.382,2.384q-.017,13.451,0,26.9c0,2.211.31,2.517,2.511,2.518q23.742.009,47.484,0c2.121,0,2.556-.431,2.558-2.508q.011-13.451,0-26.9c0-2.077-.327-2.391-2.42-2.393-7.282-.006-14.573-.227-21.842.083-4.285.182-7.68-.892-10.678-3.963-2.107-2.158-4.6-3.936-7.287-6.186" transform="translate(-72.594 -122.734)" fill="#824ffb"/>
    <path id="Trazado_890951" data-name="Trazado 890951" d="M204.583,59.389c-1.245,0-2.2.024-3.155,0-4.475-.129-7.265-2.96-7.286-7.441-.025-5.3,0-10.6-.01-15.9,0-.474-.047-.948-.079-1.557-.571-.038-1.093-.1-1.614-.1-8.49-.007-16.981-.037-25.47.042a4.8,4.8,0,0,0-2.7,1.044c-2.6,2.05-5.1,4.224-7.6,6.387-1.574,1.358-3.28,2.074-5.283,1.108s-2.564-2.715-2.463-4.807c.058-1.187.011-2.38.011-3.79-.994,0-1.819.03-2.641-.005a5.689,5.689,0,0,1-5.7-5.424q-.2-11.735,0-23.476A5.681,5.681,0,0,1,146.451.015q27.818-.03,55.636,0c3.42,0,5.943,2.689,6.011,6.355.063,3.355.013,6.712.013,10.259h6.628q7.045,0,14.09,0c2.255,0,3.512.967,3.546,2.686s-1.231,2.744-3.456,2.746q-13.187.009-26.373,0c-2.6,0-2.825.21-2.827,2.747q-.009,13.277,0,26.554c0,2.286.224,2.494,2.446,2.507,1.084.006,2.172-.047,3.251.025a4.7,4.7,0,0,1,4.592,4.649c.071,1.613.014,3.232.014,5.127a10.276,10.276,0,0,0,1.177-.709c2.864-2.394,5.759-4.751,8.554-7.223a7.38,7.38,0,0,1,5.259-1.893c8.248.062,16.5.028,24.747.024,2.224,0,2.51-.279,2.512-2.487q.01-13.367,0-26.734c0-2.138-.4-2.543-2.5-2.555-2.409-.015-4.818.025-7.225-.022-1.885-.037-2.936-1.033-2.954-2.67-.019-1.7,1.1-2.745,3.059-2.762,2.77-.025,5.54-.042,8.309,0a6.774,6.774,0,0,1,6.717,6.83q.037,14.271.007,28.541c0,4.569-2.76,7.336-7.461,7.361q-12.012.064-24.024-.015a5.342,5.342,0,0,0-3.895,1.411c-3.147,2.8-6.412,5.466-9.627,8.189-1.641,1.39-3.443,2.019-5.485.989a4.73,4.73,0,0,1-2.622-4.754c.045-1.857.009-3.716.009-5.811m-2.074-42.756c0-3.259-.053-6.316.024-9.37.034-1.376-.35-1.877-1.826-1.873q-26.447.073-52.894,0c-1.438,0-1.862.423-1.845,1.851.07,5.956.029,11.914.029,17.871,0,3.7,0,3.7,3.768,3.812a4.427,4.427,0,0,1,4.629,4.662c.029.851,0,1.7,0,2.933,2.637-2.218,4.917-4.076,7.124-6.017a6.286,6.286,0,0,1,4.439-1.6c8.725.046,17.451.021,26.176.021h1.576c.448-3.07.418-5.994,1.369-8.554,1.116-3,4-3.935,7.427-3.738" transform="translate(-72.663 0)" fill="#824ffb"/>
    <path id="Trazado_890952" data-name="Trazado 890952" d="M68.464,56.8c0,1.6.019,2.974,0,4.348-.034,1.938-.686,3.576-2.563,4.406a4.425,4.425,0,0,1-5-.919c-2.735-2.359-5.485-4.7-8.3-6.968a4.018,4.018,0,0,0-2.231-.828c-2.767-.1-5.539-.018-8.31-.044-3.714-.035-6.411-2.375-6.489-6.083q-.223-10.654-.011-21.317c.073-3.815,2.749-6.148,6.588-6.154q14.182-.019,28.366,0c3.853.006,6.559,2.5,6.613,6.366q.146,10.387,0,20.777c-.051,3.855-2.751,6.357-6.59,6.414-.6.009-1.192,0-2.075,0m-5.6,2.251c0-.984,0-1.519,0-2.054.028-4.083,1.606-5.676,5.66-5.711a12.507,12.507,0,0,1,1.262,0c1.278.12,1.808-.326,1.794-1.721q-.1-9.562,0-19.126c.013-1.378-.493-1.748-1.793-1.742q-13.442.059-26.884,0c-1.395-.007-1.881.391-1.865,1.846q.109,9.472,0,18.945c-.019,1.5.54,1.849,1.888,1.816,2.765-.069,5.533.005,8.3-.028a6.006,6.006,0,0,1,4.271,1.562c2.286,2.021,4.662,3.94,7.37,6.212" transform="translate(-18.34 -12.018)" fill="#824ffb"/>
    <path id="Trazado_890953" data-name="Trazado 890953" d="M298.355,188.124a6.3,6.3,0,0,0-1-.1c-4.945.524-7.954-2.837-7.74-8.007.257-6.187.052-12.392.064-18.589.008-4.3,2.488-6.925,6.773-6.95q14.079-.083,28.158,0c4.172.027,6.614,2.537,6.634,6.661q.05,10.2,0,20.4c-.023,3.948-2.452,6.373-6.419,6.46-2.706.058-5.418-.063-8.12.059a4.713,4.713,0,0,0-2.564.948c-2.682,2.133-5.272,4.383-7.873,6.617-1.606,1.379-3.319,2.24-5.418,1.186-1.966-.988-2.558-2.73-2.5-4.809.037-1.25.007-2.5.007-3.877m5.666,2.147c2.711-2.283,5.015-4.407,7.525-6.25a7.94,7.94,0,0,1,3.914-1.424,78.58,78.58,0,0,1,8.485-.039c1.405.046,1.895-.364,1.877-1.83q-.111-9.393,0-18.787c.02-1.543-.5-1.925-1.965-1.915-8.912.056-17.824.026-26.736.031-.533,0-1.067.052-1.752.087-.061.778-.162,1.48-.164,2.181q-.02,8.038-.008,16.078c0,3.992,0,3.992,4.051,4.131a4.443,4.443,0,0,1,4.581,4.177c.119,1.059.118,2.132.189,3.561" transform="translate(-149.785 -79.877)" fill="#824ffb"/>
    <path id="Trazado_890954" data-name="Trazado 890954" d="M194.465,342.2c3.9,0,7.81-.015,11.715.008,1.59.009,2.844.589,3.141,2.333.313,1.843-.834,3.133-2.943,3.226-1.859.082-3.724.024-5.586.025h-16.4c-.421,0-.842.008-1.262,0-2.266-.057-3.463-1.021-3.463-2.783s1.22-2.787,3.445-2.8c3.785-.021,7.57-.006,11.354-.005" transform="translate(-92.926 -176.985)" fill="#824ffb"/>
    <path id="Trazado_890955" data-name="Trazado 890955" d="M301.528,74.112q5.781,0,11.562,0c2.147,0,3.322.944,3.35,2.652.028,1.727-1.159,2.756-3.249,2.759q-11.652.013-23.3,0c-1.979,0-3.144-1.007-3.174-2.657-.03-1.713,1.171-2.746,3.254-2.751,3.854-.012,7.708,0,11.562,0" transform="translate(-148.29 -38.33)" fill="#824ffb"/>
    <path id="Trazado_890956" data-name="Trazado 890956" d="M301.517,303.34c-3.854,0-7.708.009-11.562,0-2.075-.006-3.279-1.05-3.242-2.765.035-1.651,1.2-2.64,3.185-2.643q11.743-.016,23.486,0c1.933,0,3.092,1.089,3.055,2.765-.035,1.6-1.161,2.629-3,2.639-3.974.021-7.949.007-11.923.007" transform="translate(-148.291 -154.088)" fill="#824ffb"/>
    <path id="Trazado_890957" data-name="Trazado 890957" d="M194.657,30.049c3.845,0,7.69-.032,11.535.013,2.378.028,3.769,1.783,3.024,3.757-.587,1.555-1.934,1.821-3.391,1.821H188.7c-1.922,0-3.846.037-5.767-.014-2.12-.056-3.277-1.083-3.271-2.791s1.2-2.763,3.278-2.778c3.9-.029,7.81-.009,11.715-.008" transform="translate(-92.925 -15.536)" fill="#824ffb"/>
    <path id="Trazado_890958" data-name="Trazado 890958" d="M69.277,58.087c-1.863,0-3.728.039-5.589-.01-2.108-.056-3.231-1.1-3.189-2.853.039-1.652,1.178-2.689,3.163-2.711q5.589-.063,11.179,0c2.018.022,3.272,1.2,3.223,2.865-.048,1.617-1.219,2.646-3.2,2.7-1.862.05-3.726.011-5.589.011" transform="translate(-31.29 -27.144)" fill="#824ffb"/>
    <path id="Trazado_890959" data-name="Trazado 890959" d="M323.408,191.436c-1.865,0-3.732.043-5.6-.011-1.975-.057-3.316-1.291-3.26-2.884.055-1.556,1.334-2.677,3.242-2.7q5.594-.058,11.19,0c2.016.022,3.14,1.024,3.189,2.679.052,1.737-1.1,2.835-3.171,2.9-1.864.057-3.73.012-5.6.013" transform="translate(-162.69 -96.106)" fill="#824ffb"/>
  </g>
</svg>
